# xmcd
#
# Track frame offsets:
#	187
#	9594
#	31327
#	52967
#	75357
#	97487
#	118569
#	138887
#	155777
#	175164
#	189054
#	207962
#
# Disc length: 3060 seconds
#
# Revision: 1
# Processed by: cddbd v1.5.1PL0 Copyright (c) Steve Scherf et al.
# Submitted via: CDex 1.50Beta5
#
DISCID=940bf20c
DTITLE=ビビアン・チョウ - 成長
DYEAR=1994
DGENRE=Pop
TTITLE0=成長
TTITLE1=愛の分岐点
TTITLE2=異国の午後
TTITLE3=恋のなごり
TTITLE4=あなたは幻の街
TTITLE5=本当の私じゃないの
TTITLE6=愛がないから身も軽い
TTITLE7=揺れる心
TTITLE8=果てしない愛
TTITLE9=雨の日…
TTITLE10=愛の成長
TTITLE11=愛の分岐点
EXTD=
EXTT0=
EXTT1=
EXTT2=
EXTT3=
EXTT4=
EXTT5=
EXTT6=
EXTT7=
EXTT8=
EXTT9=
EXTT10=
EXTT11=
PLAYORDER=
